<?xml version="1.0" encoding="UTF-8"?>
<svg width="66px" height="244px" viewBox="0 0 66 244" version="1.1" xmlns="http://www.w3.org/2000/svg" xmlns:xlink="http://www.w3.org/1999/xlink">
    <!-- Generator: Sketch 49.3 (51167) - http://www.bohemiancoding.com/sketch -->
    <title>底板</title>
    <desc>Created with Sketch.</desc>
    <defs>
        <path d="M4,0 L62,0 C64.209139,-4.05812251e-16 66,1.790861 66,4 L66,240 C66,242.209139 64.209139,244 62,244 L4,244 C1.790861,244 2.705415e-16,242.209139 0,240 L0,4 C-2.705415e-16,1.790861 1.790861,4.05812251e-16 4,0 Z" id="path-1"></path>
    </defs>
    <g id="Page-1" stroke="none" stroke-width="1" fill="none" fill-rule="evenodd">
        <g id="本森客服-copy" transform="translate(-10.000000, -212.000000)">
            <g id="底板" transform="translate(10.000000, 212.000000)">
                <g id="Rectangle-27">
                    <use fill="#1C1C1C" fill-rule="evenodd" xlink:href="#path-1"></use>
                    <path stroke="#323232" stroke-width="1" d="M4,0.5 C2.06700338,0.5 0.5,2.06700338 0.5,4 L0.5,240 C0.5,241.932997 2.06700338,243.5 4,243.5 L62,243.5 C63.9329966,243.5 65.5,241.932997 65.5,240 L65.5,4 C65.5,2.06700338 63.9329966,0.5 62,0.5 L4,0.5 Z"></path>
                </g>
                <path d="M16.9664998,46.592 L15.6254998,53 L14.2934998,53 L13.4654998,48.464 L12.6374998,53 L11.3054998,53 L9.96449976,46.592 L11.3684998,46.592 L11.9714998,51.119 L12.7634998,46.592 L14.1674998,46.592 L14.9594998,51.119 L15.5624998,46.592 L16.9664998,46.592 Z M23.8494999,53 L20.8974999,53 L20.8974999,46.592 L23.8494999,46.592 L23.8494999,47.744 L22.1754999,47.744 L22.1754999,49.193 L23.6154999,49.193 L23.6154999,50.345 L22.1754999,50.345 L22.1754999,51.848 L23.8494999,51.848 L23.8494999,53 Z M31.5335,51.173 C31.5065,51.785 31.2905,52.298 30.9575,52.613 C30.6335,52.919 30.2465,53.072 29.7155,53.072 C28.9955,53.072 28.6175,52.784 28.3205,52.433 C27.8075,51.821 27.8435,50.669 27.8435,49.805 C27.8435,48.941 27.8075,47.771 28.3205,47.159 C28.6175,46.808 28.9955,46.52 29.7155,46.52 C30.2465,46.52 30.6335,46.673 30.9575,46.979 C31.2905,47.294 31.4975,47.798 31.5245,48.41 L30.2465,48.41 C30.2375,48.23 30.2195,48.05 30.1475,47.915 C30.0755,47.762 29.9495,47.672 29.7155,47.672 C29.4815,47.672 29.3645,47.78 29.2925,47.924 C29.1395,48.221 29.1215,49.022 29.1215,49.796 C29.1215,50.57 29.1395,51.371 29.2925,51.668 C29.3645,51.812 29.4815,51.92 29.7155,51.92 C29.9495,51.92 30.0845,51.821 30.1565,51.668 C30.2285,51.533 30.2465,51.353 30.2555,51.173 L31.5335,51.173 Z M39.3165,53 L38.0385,53 L38.0385,50.318 L36.9765,50.318 L36.9765,53 L35.6985,53 L35.6985,46.592 L36.9765,46.592 L36.9765,49.166 L38.0385,49.166 L38.0385,46.592 L39.3165,46.592 L39.3165,53 Z M47.8195001,53 L46.4875001,53 L46.2805001,52.001 L44.8045001,52.001 L44.5975001,53 L43.2655001,53 L44.9125001,46.592 L46.1725001,46.592 L47.8195001,53 Z M46.0375001,50.849 L45.5425001,48.473 L45.0475001,50.849 L46.0375001,50.849 Z M54.8915002,47.744 L53.8115002,47.744 L53.8115002,53 L52.5335002,53 L52.5335002,47.744 L51.4535002,47.744 L51.4535002,46.592 L54.8915002,46.592 L54.8915002,47.744 Z" id="WECHAT" fill="#FFFFFF" opacity="0.5"></path>
                <path d="M19.2890625,37.5039062 L20.3613281,41.7871094 L18.8730469,41.7871094 L18.5214844,40.3339844 L18.1230469,41.7871094 L16.6640625,41.7871094 L17.8359375,37.5390625 L17.0332031,34.2460938 L18.4804688,34.2460938 L18.5976562,34.8085938 L18.8730469,33.7714844 L20.3085938,33.7714844 L19.2890625,37.5039062 Z M16.3066406,41.7871094 L14.9179688,41.7871094 L14.9179688,38.171875 L14.0683594,38.171875 L14.0683594,41.3886719 L12.5273438,41.9628906 L12.5273438,36.9179688 L16.4824219,36.9179688 L16.4824219,40.5566406 L16.8984375,40.5566406 L16.3066406,41.7871094 Z M12.4335938,34.7089844 L12.4335938,31.140625 L13.6757812,31.140625 L13.6757812,33.484375 L13.9453125,33.484375 L13.9453125,30.9296875 L15.3222656,30.9296875 L15.3222656,33.484375 L15.6328125,33.484375 L15.6328125,31.0996094 L16.8574219,31.0996094 L16.8574219,33.484375 L15.796875,34.7089844 L12.4335938,34.7089844 Z M17.5722656,30.9296875 L19.1894531,30.9296875 L18.9785156,31.8144531 L20.5429688,31.8144531 L20.0039062,33.0683594 L18.7207031,33.0683594 L18.5800781,33.6015625 L16.9335938,33.6015625 L17.5722656,30.9296875 Z M16.2128906,36.2382812 L12.5273438,36.2382812 L12.5273438,35.1953125 L16.7695312,35.1953125 L16.2128906,36.2382812 Z M11.2207031,33.5429688 L9.52734375,33.5429688 L10.6230469,30.9296875 L12.2578125,30.9296875 L11.2207031,33.5429688 Z M12.2695312,33.6777344 L11.8300781,35.0664062 L11.8300781,41.3125 L10.2714844,41.9804688 L10.2714844,36.4960938 L9.5625,36.4960938 L10.6875,33.6777344 L12.2695312,33.6777344 Z M27.3808594,31.6328125 C27.4082033,31.5351558 27.4511716,31.4091805 27.5097656,31.2548828 C27.5683597,31.1005852 27.6972646,30.9658209 27.8964844,30.8505859 C28.0957041,30.735351 28.296874,30.6777344 28.5,30.6777344 C28.6953135,30.6816406 28.8916006,30.7402338 29.0888672,30.8535156 C29.2861338,30.9667974 29.4082029,31.0917962 29.4550781,31.2285156 L29.6132812,31.6328125 L32.4902344,31.6328125 L31.9394531,32.8339844 L24.5800781,32.8339844 L24.5859375,31.6328125 L27.3808594,31.6328125 Z M24.7441406,33.671875 L32.3964844,33.671875 L31.8457031,34.8613281 L24.7441406,34.8613281 L24.7441406,33.671875 Z M24.7441406,35.9101562 L32.4199219,35.9101562 L31.8457031,37.1582031 L24.7441406,37.1582031 L24.7441406,35.9101562 Z M24.75,37.8378906 L32.2207031,37.8320312 L32.2148438,40.4804688 L30.4160156,41.7050781 L24.75,41.6992188 L24.75,37.8378906 Z M26.6191406,39.0390625 L26.6191406,40.4980469 L30.3574219,40.4980469 L30.3515625,39.0332031 L26.6191406,39.0390625 Z M22.7050781,30.9296875 L24.6796875,30.9296875 L24.1054688,32.9511719 L24.1054688,41.0957031 L22.2480469,41.9042969 L22.2480469,34.9257812 L21.4453125,34.9257812 L22.7050781,30.9296875 Z M38.671875,37.1523438 L36.8964844,37.9375 L33.2753906,37.9375 L36.8554688,36.4433594 L34.1484375,35.3886719 L37.96875,35.3945312 L38.7070312,35.6757812 L40.6113281,34.9257812 L35.9707031,34.9257812 L35.7128906,35.1894531 L33.7441406,35.1894531 L34.9921875,33.5019531 L36.8261719,33.5019531 L36.65625,33.7421875 L43.9453125,33.7421875 L43.9335938,34.8320312 L40.4648438,36.3613281 L44.5078125,37.9316406 L40.6875,37.9375 L38.671875,37.1523438 Z M33.7851562,38.3828125 L44.1445312,38.3828125 L44.1445312,40.5214844 L42.3808594,41.6875 L33.7851562,41.6992188 L33.7851562,38.3828125 Z M42.1933594,39.5371094 L35.7597656,39.5371094 L35.7597656,40.5390625 L42.1816406,40.5390625 L42.1933594,39.5371094 Z M33.6035156,33.7011719 L33.6035156,31.4335938 L37.8925781,31.4277344 C37.9511722,31.3183588 38.049804,31.1728525 38.1884766,30.9912109 C38.3271491,30.8095694 38.5751935,30.7236328 38.9326172,30.7333984 C39.2900408,30.7431641 39.5673818,30.7880855 39.7646484,30.8681641 C39.961915,30.9482426 40.0957028,31.0488275 40.1660156,31.1699219 L40.3242188,31.4277344 L44.3554688,31.4335938 L44.3554688,33.0683594 L42.4980469,33.5605469 L42.4980469,32.6875 L35.4609375,32.6875 L35.4609375,33.2089844 L33.6035156,33.7011719 Z M55.1015625,39.5664062 L56.3964844,41.7402344 L54.7382813,41.7402344 L54.3632813,41.0957031 L54.0527344,41.7636719 L52.3359375,41.7636719 L53.4492188,39.5195312 L52.4589844,37.8144531 L54.0527344,37.8144531 L54.1875,38.03125 L54.5507813,37.2929688 L52.4003906,37.2929688 L52.4003906,41.3300781 L50.7597656,41.9804688 L50.7597656,31.0878906 L56.0449219,31.0878906 L56.0449219,34.2753906 L54.515625,35.6171875 L52.8046875,35.6171875 L52.8046875,34.375 L54.3984375,34.375 L54.3984375,32.3125 L52.4003906,32.3125 L52.4003906,36.0683594 L56.2617188,36.0683594 L56.2617188,37.1464844 L55.1015625,39.5664062 Z M50.4375,31.0878906 L50.4375,40.4042969 L49.0371094,41.8046875 L47.9882812,41.8046875 L47.9882812,40.5449219 L48.796875,40.5449219 L48.796875,38.6289062 L47.6015625,38.6289062 L47.6015625,41.3300781 L45.9492188,42.0039062 L45.9492188,31.0878906 L50.4375,31.0878906 Z M47.6015625,34.2753906 L48.796875,34.2753906 L48.796875,32.3769531 L47.6015625,32.3769531 L47.6015625,34.2753906 Z M47.6015625,37.3574219 L48.796875,37.3574219 L48.796875,35.5292969 L47.6015625,35.5292969 L47.6015625,37.3574219 Z" id="微信客服" fill="#FFFFFF"></path>
            </g>
        </g>
    </g>
</svg>