<?xml version="1.0" encoding="UTF-8"?>
<svg width="66px" height="88px" viewBox="0 0 66 88" version="1.1" xmlns="http://www.w3.org/2000/svg" xmlns:xlink="http://www.w3.org/1999/xlink">
    <!-- Generator: Sketch 49.3 (51167) - http://www.bohemiancoding.com/sketch -->
    <title>vettel@2x</title>
    <desc>Created with Sketch.</desc>
    <defs>
        <rect id="path-1" x="0" y="0" width="50" height="72" rx="8"></rect>
        <filter x="-28.0%" y="-13.9%" width="156.0%" height="138.9%" filterUnits="objectBoundingBox" id="filter-2">
            <feOffset dx="0" dy="4" in="SourceAlpha" result="shadowOffsetOuter1"></feOffset>
            <feGaussianBlur stdDeviation="4" in="shadowOffsetOuter1" result="shadowBlurOuter1"></feGaussianBlur>
            <feColorMatrix values="0 0 0 0 0   0 0 0 0 0   0 0 0 0 0  0 0 0 0.7 0" type="matrix" in="shadowBlurOuter1"></feColorMatrix>
        </filter>
    </defs>
    <g id="Page-1" stroke="none" stroke-width="1" fill="none" fill-rule="evenodd">
        <g id="本森客服-copy" transform="translate(-10.000000, -365.000000)">
            <g id="vettel" transform="translate(18.000000, 369.000000)">
                <g id="Rectangle-5">
                    <use fill="black" fill-opacity="1" filter="url(#filter-2)" xlink:href="#path-1"></use>
                    <use fill="#000000" fill-rule="evenodd" xlink:href="#path-1"></use>
                </g>
                <g id="Bitmap" transform="translate(2.000000, 20.000000)" fill="#FFFFFF">
                    <g id="Group">
                        <g id="Page-1" transform="translate(0.678571, 0.535714)">
                            <path d="M4.00168428,3.35284795 L4.00168428,3.00596213 C4.00168428,2.83414108 3.96171418,2.72290102 3.88167858,2.67252816 C3.8015476,2.6221553 3.66971304,2.59687347 3.48598414,2.59687347 L1.04933436,2.59687347 L1.04933436,3.76193661 L3.48598414,3.76193661 C3.66971304,3.76193661 3.8015476,3.73675018 3.88167858,3.68637733 C3.96171418,3.63600447 4.00168428,3.52485981 4.00168428,3.35284795 Z M3.97506934,1.51185356 L3.97506934,1.07605201 C3.97506934,0.856815599 3.81194555,0.747101989 3.48598414,0.747101989 L1.04933436,0.747101989 L1.04933436,1.84089899 L3.48598414,1.84089899 C3.81194555,1.84089899 3.97506934,1.73128078 3.97506934,1.51185356 Z M4.99769337,3.69076587 C4.99769337,4.28970678 4.54705196,4.58898643 3.64595993,4.58898643 L0,4.58898643 L0,0 L3.93052033,0 C4.61821591,0 4.9621114,0.296512959 4.9621114,0.88934807 L4.9621114,1.44965071 C4.9621114,1.90023974 4.6983469,2.15820983 4.17062711,2.22337018 C4.72200462,2.29454092 4.99769337,2.58800098 4.99769337,3.10384575 L4.99769337,3.69076587 Z" id="Fill-1"></path>
                            <polygon id="Fill-3" points="10.7642626 4.58898643 6.3432262 4.58898643 6.3432262 0 10.7227982 0 10.7227982 0.782591957 7.33855112 0.782591957 7.33855112 1.80531362 9.31282871 1.80531362 9.31282871 2.58800098 7.33855112 2.58800098 7.33855112 3.72635124 10.7642626 3.72635124"></polygon>
                            <path d="M17.9724742,4.58898643 L17.264871,4.58898643 L13.994289,1.75198326 C13.8562675,1.63349256 13.7325017,1.50899146 13.623362,1.37847997 C13.6520586,1.67499293 13.6664069,1.90920764 13.6664069,2.08102869 L13.6664069,4.58898643 L12.7345072,4.58898643 L12.7345072,0 L13.4421104,0 L16.5744858,2.70362958 C16.7988749,2.89930142 16.9684627,3.06530289 17.0836194,3.20163397 C17.0548302,2.77470492 17.0405745,2.51101064 17.0405745,2.41016952 L17.0405745,0 L17.9724742,0 L17.9724742,4.58898643 Z" id="Fill-5"></path>
                            <path d="M20.8803584,3.72635124 L24.0637963,3.72635124 L24.0637963,2.6769167 L21.255541,2.6769167 C20.8309578,2.6769167 20.5388581,2.60288387 20.3789611,2.45453198 C20.2189705,2.30646631 20.1390688,2.01882584 20.1390688,1.59189679 L20.1390688,1.08492451 C20.1390688,0.658090859 20.2189705,0.370545795 20.3789611,0.222289316 C20.5388581,0.0742236428 20.8309578,0 21.255541,0 L23.8108989,0 C24.2412829,0 24.5349732,0.0755592868 24.6918762,0.226773264 C24.8488728,0.37798724 24.9274646,0.670016252 24.9274646,1.10276489 L24.002794,1.32514961 L24.002794,0.800432344 L21.054851,0.800432344 L21.054851,1.78756863 L23.8633871,1.78756863 C24.2876895,1.78756863 24.5813798,1.86179228 24.7441772,2.00995335 C24.9069746,2.15820983 24.9884669,2.44565949 24.9884669,2.87258854 L24.9884669,3.50396652 C24.9884669,3.93089557 24.9069746,4.21853604 24.7441772,4.36669712 C24.5813798,4.5149536 24.2876895,4.58898643 23.8633871,4.58898643 L21.0810483,4.58898643 C20.6215667,4.58898643 20.3191752,4.5060811 20.1738738,4.33998424 C20.0867678,4.24047876 20.025672,4.08554406 19.9907735,3.87508474" id="Fill-7"></path>
                            <path d="M27.6260571,3.72635124 L31.09684,3.72635124 L31.09684,0.818177328 L27.6260571,0.818177328 L27.6260571,3.72635124 Z M32.1486237,3.50406193 C32.1486237,3.93089557 32.068144,4.21863144 31.9074665,4.36669712 C31.7466951,4.5149536 31.4531697,4.58898643 31.0267023,4.58898643 L27.6961949,4.58898643 C27.2696334,4.58898643 26.976014,4.5149536 26.8153366,4.36669712 C26.6545651,4.21863144 26.5742734,3.93089557 26.5742734,3.50406193 L26.5742734,1.08501991 C26.5742734,0.658090859 26.6545651,0.370641199 26.8153366,0.222384719 C26.976014,0.0742236428 27.2696334,0 27.6961949,0 L31.0267023,0 C31.4531697,0 31.7466951,0.0742236428 31.9074665,0.222384719 C32.068144,0.370641199 32.1486237,0.658090859 32.1486237,1.08501991 L32.1486237,3.50406193 Z" id="Fill-9"></path>
                            <path d="M39.0685068,4.58898643 L38.3608236,4.58898643 L35.0903919,1.75198326 C34.9522802,1.63349256 34.8285167,1.50899146 34.7193788,1.37847997 C34.748075,1.67499293 34.762423,1.90920764 34.762423,2.08102869 L34.762423,4.58898643 L33.8305398,4.58898643 L33.8305398,0 L34.5381305,0 L37.6705431,2.70362958 C37.8949282,2.89930142 38.064513,3.06530289 38.1796678,3.20163397 C38.1507865,2.77470492 38.136531,2.51101064 38.136531,2.41016952 L38.136531,0 L39.0685068,0 L39.0685068,4.58898643 Z" id="Fill-11"></path>
                            <path d="M2.25857297,8.3743057 C2.25857297,8.59233349 2.22209245,8.73937772 2.14904889,8.8150552 C2.07592279,8.89073269 1.94411424,8.92857143 1.75362323,8.92857143 L0.504949732,8.92857143 C0.298777056,8.92857143 0.163089354,8.88623036 0.0978866266,8.80135662 C0.0326013638,8.71657868 0,8.55305784 0,8.3106983 L0.414903939,8.21078486 L0.414903939,8.48791772 L1.84375156,8.48791772 L1.84375156,7.95185291 L0.58327554,7.95185291 C0.392784533,7.95185291 0.261636262,7.91391838 0.189913261,7.8381451 C0.117942656,7.76256341 0.082204958,7.61551918 0.082204958,7.39758719 L0.082204958,7.13855944 C0.082204958,6.92043586 0.117942656,6.77358322 0.189913261,6.69790574 C0.261636262,6.62213246 0.392784533,6.58419792 0.58327554,6.58419792 L1.7302658,6.58419792 C1.9233154,6.58419792 2.05512395,6.62289882 2.12552639,6.70010901 C2.19601136,6.7773192 2.23125385,6.92656669 2.23125385,7.14756411 L1.81634991,7.26117613 L1.81634991,6.99314372 L0.493229748,6.99314372 L0.493229748,7.49750063 L1.75362323,7.49750063 C1.94411424,7.49750063 2.07592279,7.53533937 2.14904889,7.61101685 C2.22209245,7.68679013 2.25857297,7.83364277 2.25857297,8.05176635 L2.25857297,8.3743057 Z" id="Fill-12"></path>
                            <path d="M5.81462402,8.3743057 C5.81462402,8.59233349 5.7752443,8.73937772 5.6965754,8.8150552 C5.61781597,8.89073269 5.47387631,8.92857143 5.26511855,8.92857143 L3.86546386,8.92857143 C3.65643451,8.92857143 3.51258539,8.89073269 3.43391648,8.8150552 C3.35515705,8.73937772 3.31577733,8.59233349 3.31577733,8.3743057 L3.31577733,6.58419792 L3.83106318,6.58419792 L3.83106318,8.48791772 L5.2994287,8.48791772 L5.2994287,6.58419792 L5.81462402,6.58419792 L5.81462402,8.3743057 Z" id="Fill-13"></path>
                            <path d="M8.70890505,7.42473131 L8.70890505,7.17488961 C8.70890505,7.0960477 8.68867902,7.04460406 8.64822697,7.02027132 C8.61844265,6.99929152 8.56587205,6.98846632 8.49025914,6.98846632 L7.39754166,6.98846632 L7.39754166,7.61096301 L8.49025914,7.61096301 C8.56587205,7.61096301 8.61844265,7.60042521 8.64822697,7.57915801 C8.68867902,7.55492107 8.70890505,7.50347743 8.70890505,7.42473131 Z M9.1784561,7.56105215 C9.1784561,7.86396605 9.02185374,8.01532721 8.70890505,8.01532721 L7.39754166,8.01532721 L7.39754166,8.92857143 L6.91988313,8.92857143 L6.91988313,6.58419792 L8.70890505,6.58419792 C9.02185374,6.58419792 9.1784561,6.73575067 9.1784561,7.03856878 L9.1784561,7.56105215 Z" id="Fill-14"></path>
                            <polygon id="Fill-15" points="12.2539597 8.92857143 9.99538674 8.92857143 9.99538674 6.58419792 12.2326954 6.58419792 12.2326954 6.98404326 10.5038538 6.98404326 10.5038538 7.50650529 11.5123001 7.50650529 11.5123001 7.90635063 10.5038538 7.90635063 10.5038538 8.48782193 12.2539597 8.48782193"></polygon>
                            <path d="M14.5391867,7.45653632 L14.5391867,7.17488961 C14.5391867,7.0960477 14.5188688,7.04460406 14.4780607,7.02027132 C14.4479282,6.99929152 14.3949811,6.98846632 14.3187028,6.98846632 L13.2163692,6.98846632 L13.2163692,7.64276801 L14.3187028,7.64276801 C14.3949811,7.64276801 14.4479282,7.63223021 14.4780607,7.61096301 C14.5188688,7.58672607 14.5391867,7.53528244 14.5391867,7.45653632 Z M15.2333538,8.92857143 L14.5310079,8.92857143 L13.6817874,8.04262969 L13.2163692,8.04262969 L13.2163692,8.92857143 L12.7345072,8.92857143 L12.7345072,6.58419792 L14.5391867,6.58419792 C14.8550616,6.58419792 15.0128699,6.73575067 15.0128699,7.03856878 L15.0128699,7.58825884 C15.0128699,7.81549216 14.9313399,7.95631552 14.7679356,8.01082469 C14.7052599,8.03209189 14.5365178,8.04262969 14.2615371,8.04262969 L15.2333538,8.92857143 Z" id="Fill-16"></path>
                            <path d="M18.5971859,8.3743057 C18.5971859,8.59233349 18.5605394,8.73937772 18.487162,8.8150552 C18.4137001,8.89073269 18.2794422,8.92857143 18.0847259,8.92857143 L16.8511574,8.92857143 C16.6563567,8.92857143 16.5222677,8.89073269 16.4487213,8.8150552 C16.3753439,8.73937772 16.3386129,8.59233349 16.3386129,8.3743057 L16.3386129,7.13855944 C16.3386129,6.92043586 16.3753439,6.77358322 16.4487213,6.69790574 C16.5222677,6.62213246 16.6563567,6.58419792 16.8511574,6.58419792 L18.0847259,6.58419792 C18.3303588,6.58419792 18.4825178,6.64943383 18.5412029,6.77961826 C18.5785249,6.85539154 18.5971859,7.04927917 18.5971859,7.36118536 L18.1167283,7.44749601 L18.1167283,7.00224418 L16.819155,7.00224418 L16.819155,8.48791772 L18.1167283,8.48791772 L18.1167283,7.98356082 L18.5971859,8.09707705 L18.5971859,8.3743057 Z" id="Fill-17"></path>
                            <path d="M21.0742454,7.99256548 L20.5892795,7.03855021 L20.0869046,7.99256548 L21.0742454,7.99256548 Z M22.153237,8.92857143 L21.5634484,8.92857143 L21.2926413,8.41511407 L19.8640874,8.41511407 L19.6021229,8.92857143 L19.0777334,8.92857143 L20.3534746,6.58419792 L20.8601788,6.58419792 L22.153237,8.92857143 Z" id="Fill-18"></path>
                            <path d="M24.5345735,7.45653632 L24.5345735,7.17488961 C24.5345735,7.0960477 24.5141694,7.04460406 24.4733614,7.02027132 C24.443315,6.99929152 24.3902817,6.98846632 24.3140034,6.98846632 L23.2117559,6.98846632 L23.2117559,7.64276801 L24.3140034,7.64276801 C24.3902817,7.64276801 24.443315,7.63223021 24.4733614,7.61096301 C24.5141694,7.58672607 24.5345735,7.53528244 24.5345735,7.45653632 Z M25.2287406,8.92857143 L24.5263946,8.92857143 L23.6770881,8.04262969 L23.2117559,8.04262969 L23.2117559,8.92857143 L22.7298939,8.92857143 L22.7298939,6.58419792 L24.5345735,6.58419792 C24.8503622,6.58419792 25.0082566,6.73575067 25.0082566,7.03856878 L25.0082566,7.58825884 C25.0082566,7.81549216 24.9266406,7.95631552 24.7633223,8.01082469 C24.7007328,8.03209189 24.5319046,8.04262969 24.2568377,8.04262969 L25.2287406,8.92857143 Z" id="Fill-19"></path>
                            <path d="M29.649777,8.37418726 C29.649777,8.59231975 29.6090466,8.73936999 29.5278661,8.81505056 C29.4466856,8.89082694 29.2982439,8.92857143 29.0827278,8.92857143 L27.718073,8.92857143 C27.5024635,8.92857143 27.3540218,8.89082694 27.2728412,8.81505056 C27.1915673,8.73936999 27.1509303,8.59231975 27.1509303,8.37418726 L27.1509303,7.1384863 C27.1509303,6.9203538 27.1915673,6.77349516 27.2728412,6.69771879 C27.3540218,6.62213401 27.5024635,6.58419792 27.718073,6.58419792 L29.0827278,6.58419792 C29.3543883,6.58419792 29.5228215,6.6493407 29.5877473,6.77953045 C29.6290382,6.85540262 29.649777,7.04920238 29.649777,7.36112131 L29.1181334,7.44733969 L29.1181334,7.00226126 L27.6826674,7.00226126 L27.6826674,8.48789972 L29.1181334,8.48789972 L29.1181334,7.9835222 L29.649777,8.09704307 L29.649777,8.37418726 Z" id="Fill-20"></path>
                            <polygon id="Fill-21" points="32.8213901 8.92857143 30.5628172 8.92857143 30.5628172 6.58419792 31.0974507 6.58419792 31.0974507 8.48780392 32.8213901 8.48780392"></polygon>
                            <path d="M35.8007843,8.37418726 C35.8007843,8.59231975 35.7614045,8.73936999 35.6827356,8.81505056 C35.6038857,8.89082694 35.4601271,8.92857143 35.2511883,8.92857143 L33.8516241,8.92857143 C33.6425042,8.92857143 33.4987456,8.89082694 33.4200767,8.81505056 C33.3413173,8.73936999 33.3019376,8.59231975 33.3019376,8.37418726 L33.3019376,6.58419792 L33.8171329,6.58419792 L33.8171329,8.48789972 L35.2855889,8.48789972 L35.2855889,6.58419792 L35.8007843,6.58419792 L35.8007843,8.37418726 Z" id="Fill-22"></path>
                            <path d="M38.9068832,8.29697391 L38.9068832,8.11974724 C38.9068832,8.03199609 38.8869142,7.97528356 38.8468824,7.94941805 C38.8069444,7.92374413 38.7408497,7.91081137 38.6490672,7.91081137 L37.4307693,7.91081137 L37.4307693,8.50600558 L38.6490672,8.50600558 C38.7408497,8.50600558 38.8069444,8.49316862 38.8468824,8.4673031 C38.8869142,8.44172499 38.9068832,8.38491665 38.9068832,8.29697391 Z M38.8935706,7.356523 L38.8935706,7.13388799 C38.8935706,7.02180409 38.8119132,6.96576215 38.6490672,6.96576215 L37.4307693,6.96576215 L37.4307693,7.52455304 L38.6490672,7.52455304 C38.8119132,7.52455304 38.8935706,7.46860689 38.8935706,7.356523 Z M39.4048901,8.46969806 C39.4048901,8.7756775 39.1796057,8.92857143 38.7290371,8.92857143 L36.9060434,8.92857143 L36.9060434,6.58419792 L38.8713515,6.58419792 C39.2151375,6.58419792 39.3871711,6.73555908 39.3871711,7.03847298 L39.3871711,7.324718 C39.3871711,7.55492107 39.2551693,7.68664359 38.9913531,7.72007716 C39.2670757,7.75628888 39.4048901,7.90630886 39.4048901,8.1698497 L39.4048901,8.46969806 Z" id="Fill-23"></path>
                            <path d="M41.3436513,1.1884516 C41.1156053,1.1884516 40.9415955,1.20093034 40.8218137,1.22559071 L40.6778453,1.07703426 L42.1714699,1.03989515 L42.1714699,0.77992136 L42.1535218,0 L42.7113515,0.129937374 C42.7473436,0.142416116 42.7473436,0.167076487 42.7113515,0.204215599 C42.6632661,0.253833453 42.6332247,0.309591641 42.6214192,0.371391124 L42.6214192,1.03989515 L43.5751622,1.00275603 L43.845055,0.705643135 L44.1870281,1.05851422 C44.2109268,1.09565333 44.2049761,1.11417337 44.168984,1.11417337 L42.873364,1.15131248 C43.0532286,2.05512992 43.6350531,2.79791217 44.6189334,3.37965923 C44.6428321,3.40461671 44.6487828,3.42313675 44.6369774,3.43531837 C44.6369774,3.44779712 44.6248841,3.45393745 44.6009853,3.45393745 C44.4328302,3.44175582 44.1808854,3.54673571 43.845055,3.76957039 C43.3170748,3.18782333 42.969247,2.31510371 42.8013798,1.15131248 L42.6214192,1.15131248 L42.6214192,3.10106636 L42.8193279,3.10106636 L43.0352805,2.89685076 L43.3051734,3.13820548 C43.3170748,3.15068422 43.3111241,3.16930329 43.2872253,3.19396366 L42.6214192,3.2124837 L42.6214192,3.43531837 L42.6214192,3.99240506 C42.5733338,4.26465951 42.4414587,4.46283382 42.225506,4.5867299 C42.1774206,4.59891152 42.1472832,4.56177241 42.1354778,4.47531256 L42.1535218,3.71391124 L42.1535218,3.2124837 L42.0634936,3.2124837 C42.0275014,3.2124837 41.9734653,3.21892115 41.9014811,3.23110278 C41.7334219,3.23110278 41.6194949,3.24358152 41.559604,3.26824189 L41.4335836,3.11968544 L42.1535218,3.11968544 L42.1714699,1.93123384 C41.7634633,2.50079927 41.1336494,3.16316296 40.2818361,3.91812684 C40.2577454,3.93060558 40.2397013,3.93060558 40.2278959,3.91812684 C40.2158026,3.90594521 40.2217533,3.88742517 40.245844,3.86246769 C40.9775876,3.0703647 41.5714094,2.17268759 42.0275014,1.16993156 L41.3436513,1.1884516 Z" id="Fill-24"></path>
                            <path d="M42.4369901,6.9805856 C42.4012046,6.9805856 42.3833596,6.96265124 42.3833596,6.92668662 C42.3833596,6.90271021 42.4012046,6.89072201 42.4369901,6.89072201 L42.9737714,6.87269174 L42.9916164,6.76479789 L42.955831,6.27932349 C42.955831,6.24335888 42.9676641,6.22532861 42.9916164,6.22532861 L43.3674111,6.36918709 C43.4031965,6.36918709 43.4091131,6.3812712 43.3853515,6.40515171 L43.3316257,6.54901018 L43.3316257,6.87269174 L43.6536945,6.85475739 L43.8505621,6.62093942 L44.13675,6.87269174 C44.1485831,6.89685997 44.1426666,6.91479432 44.118905,6.92668662 L43.3853515,6.94462098 C43.4806839,7.40036462 43.8921686,7.80777182 44.619901,8.167418 C44.6556864,8.20338262 44.649579,8.22755085 44.6019606,8.23934724 C44.4706519,8.20338262 44.2978322,8.26936571 44.0831196,8.43720059 C43.677456,8.10162673 43.4328746,7.60991847 43.3495661,6.96265124 L43.3316257,6.96265124 L43.3137807,8.23934724 C43.3137807,8.50289596 43.1705436,8.71868367 42.8842602,8.88671037 C42.8484747,8.89850676 42.8306297,8.89265652 42.8306297,8.86868011 C42.8543913,8.70074932 42.8186058,8.59285546 42.7232735,8.54499854 C42.6992257,8.50912983 42.7054285,8.49109957 42.7412139,8.49109957 C42.8960932,8.49109957 42.9676641,8.4610811 42.955831,8.40123598 L42.9737714,7.64588308 C42.7350111,7.92180364 42.3713357,8.22755085 41.8823637,8.5630288 C41.8703398,8.5748252 41.8583159,8.5748252 41.8465783,8.5630288 C41.8345544,8.55094469 41.8345544,8.53301034 41.8465783,8.50912983 C42.3117888,8.12550723 42.687488,7.61615233 42.9737714,6.9805856 L42.9737714,6.96265124 L42.4369901,6.9805856 Z M41.7928524,7.19637331 C42.1266588,7.32843539 42.3235264,7.44217949 42.3833596,7.53798923 C42.4071212,7.59812207 42.3654192,7.69393181 42.2580629,7.82580208 C42.2222775,7.8617667 42.1924086,7.87970106 42.1685517,7.87970106 C42.1445993,7.86790466 42.1208378,7.83194004 42.0969808,7.7718072 C42.0134815,7.53213899 41.9061252,7.35231589 41.7750074,7.23233793 C41.7629835,7.20845742 41.7688046,7.19637331 41.7928524,7.19637331 Z M41.1307743,7.03448457 C40.9518472,7.03448457 40.7847531,7.04656868 40.6298738,7.07044919 L40.5045771,6.94462098 L41.3992127,6.90865636 L41.3992127,6.81879277 L41.3634273,6.33322247 C41.3634273,6.29725785 41.3751649,6.27932349 41.3992127,6.27932349 L41.7750074,6.40515171 C41.7987689,6.41723582 41.80459,6.43517017 41.7928524,6.45914659 L41.739222,6.5849748 L41.739222,6.90865636 L41.8644233,6.89072201 L42.0433504,6.69286865 L42.3117888,6.92668662 C42.3355503,6.96265124 42.3296338,6.9805856 42.2938484,6.9805856 L41.739222,6.99851995 L41.7034366,8.27531186 C41.6914126,8.55094469 41.554092,8.7667324 41.2918564,8.92267499 C41.256071,8.93447138 41.2381306,8.92862114 41.2381306,8.90464473 C41.2619875,8.73671393 41.2262021,8.62287393 41.1307743,8.5630288 C41.1068219,8.55094469 41.1129293,8.53886058 41.1487147,8.52706419 C41.3035941,8.52706419 41.3751649,8.49704572 41.3634273,8.43720059 L41.3812723,7.64588308 C41.1665597,7.88583902 40.8325624,8.167418 40.3793758,8.49109957 C40.3315665,8.52706419 40.2957811,8.55094469 40.2720195,8.5630288 C40.2362341,8.5748252 40.2300313,8.5630288 40.2540791,8.52706419 C40.7072657,8.13145338 41.0771439,7.62794873 41.3634273,7.01655022 L41.1307743,7.03448457 Z M42.6338576,4.8227085 L42.6159172,5.00253159 L42.5979768,5.20038494 L43.8505621,5.18235468 L44.118905,4.94863262 L44.387248,5.20038494 C44.411105,5.22445726 44.411105,5.24248752 44.387248,5.25428392 L42.7769993,5.29024854 C42.9676641,5.67406294 43.5222904,5.95554602 44.4409739,6.13536911 C44.4527115,6.13536911 44.4647354,6.14160298 44.4767593,6.15339938 L44.4409739,6.189364 C44.2262613,6.21353222 44.0412268,6.33936043 43.8863475,6.56704044 C43.3137807,6.30339581 42.9259621,5.87776654 42.7232735,5.29024854 L42.5979768,5.29024854 L42.5979768,5.39814239 L42.6159172,5.97357629 C42.5918694,6.20144811 42.4845131,6.39920555 42.2938484,6.56704044 C42.2698006,6.59111276 42.246039,6.59705891 42.2222775,6.5849748 C42.2102536,6.5731784 42.2043371,6.54901018 42.2043371,6.51304556 L42.2222775,5.64989472 L42.2222775,5.63186446 C41.7212816,6.00359475 41.0949889,6.35739069 40.3435904,6.69286865 C40.307805,6.70495276 40.2778406,6.71703688 40.2540791,6.72883327 C40.2182937,6.74091738 40.2121863,6.72883327 40.2362341,6.69286865 C40.8445863,6.34530658 41.4646762,5.87776654 42.0969808,5.29024854 L41.2381306,5.3082788 C41.0352511,5.32026701 40.8504074,5.33829727 40.6835042,5.36217777 L40.5583029,5.2183193 L42.2222775,5.20038494 L42.2222775,5.11042545 L42.2043371,4.58898643 L42.6159172,4.75077926 C42.6517026,4.76286337 42.6576191,4.78674388 42.6338576,4.8227085 Z" id="Fill-25"></path>
                            <polygon id="Fill-26" points="0.24027372 4.58898643 13.3111641 4.58898643 13.3111641 3.74102155 0.24027372 3.74102155"></polygon>
                            <polygon id="Fill-27" points="17.4919268 4.58898643 34.0708135 4.58898643 34.0708135 3.74102155 17.4919268 3.74102155"></polygon>
                        </g>
                    </g>
                </g>
                <rect id="Rectangle-7" fill="#C5080C" x="6" y="49" width="40" height="17" rx="8.5"></rect>
                <path d="M18.722,53.456 L16.802,62 L15.026,62 L13.118,53.456 L14.99,53.456 L15.914,59.492 L16.85,53.456 L18.722,53.456 Z M23.426,59.288 L20.75,59.288 C20.75,59.72 20.774,60.224 20.87,60.404 C20.954,60.548 21.086,60.656 21.29,60.656 C21.494,60.656 21.602,60.56 21.71,60.404 C21.758,60.32 21.794,60.104 21.794,60.008 L23.39,60.008 C23.354,60.512 23.21,61.1 22.814,61.544 C22.454,61.94 21.914,62.096 21.29,62.096 C20.642,62.096 20.234,61.976 19.778,61.532 C19.154,60.932 19.142,59.744 19.142,58.772 C19.142,57.8 19.154,56.6 19.778,56 C20.234,55.556 20.75,55.448 21.29,55.448 C21.854,55.448 22.346,55.544 22.79,56 C23.51,56.756 23.414,58.256 23.426,59.288 Z M21.818,58.124 C21.818,57.692 21.794,57.26 21.71,57.128 C21.614,56.996 21.494,56.888 21.29,56.888 C21.086,56.888 20.966,56.996 20.87,57.128 C20.786,57.26 20.75,57.692 20.75,58.124 L21.818,58.124 Z M27.038,62 C26.378,62 25.85,61.94 25.382,61.604 C24.926,61.28 24.638,60.764 24.638,59.924 L24.638,57.008 L24.038,57.008 L24.038,55.796 L24.638,55.796 L24.638,54.032 L26.246,54.032 L26.246,55.796 L27.038,55.796 L27.038,57.008 L26.246,57.008 L26.246,59.816 C26.246,60.32 26.498,60.56 27.038,60.56 L27.038,62 Z M30.518,62 C29.858,62 29.33,61.94 28.862,61.604 C28.406,61.28 28.118,60.764 28.118,59.924 L28.118,57.008 L27.518,57.008 L27.518,55.796 L28.118,55.796 L28.118,54.032 L29.726,54.032 L29.726,55.796 L30.518,55.796 L30.518,57.008 L29.726,57.008 L29.726,59.816 C29.726,60.32 29.978,60.56 30.518,60.56 L30.518,62 Z M35.414,59.288 L32.738,59.288 C32.738,59.72 32.762,60.224 32.858,60.404 C32.942,60.548 33.074,60.656 33.278,60.656 C33.482,60.656 33.59,60.56 33.698,60.404 C33.746,60.32 33.782,60.104 33.782,60.008 L35.378,60.008 C35.342,60.512 35.198,61.1 34.802,61.544 C34.442,61.94 33.902,62.096 33.278,62.096 C32.63,62.096 32.222,61.976 31.766,61.532 C31.142,60.932 31.13,59.744 31.13,58.772 C31.13,57.8 31.142,56.6 31.766,56 C32.222,55.556 32.738,55.448 33.278,55.448 C33.842,55.448 34.334,55.544 34.778,56 C35.498,56.756 35.402,58.256 35.414,59.288 Z M33.806,58.124 C33.806,57.692 33.782,57.26 33.698,57.128 C33.602,56.996 33.482,56.888 33.278,56.888 C33.074,56.888 32.954,56.996 32.858,57.128 C32.774,57.26 32.738,57.692 32.738,58.124 L33.806,58.124 Z M38.714,62 C38.054,62 37.526,61.94 37.058,61.604 C36.602,61.28 36.314,60.764 36.314,59.924 L36.314,53.456 L37.922,53.456 L37.922,59.816 C37.922,60.32 38.174,60.56 38.714,60.56 L38.714,62 Z" id="Vettel" fill="#D9D9D9"></path>
            </g>
        </g>
    </g>
</svg>